<svg xmlns="http://www.w3.org/2000/svg" viewBox="0 0 18.467 18.467"><g fill="#555"><path d="M17.11 5.454c-.243-.29-.674-.327-.963-.086l-1.894 1.59-.87-2.157c-.032-.08-.08-.148-.133-.208-.178-.396-.487-.736-.913-.933-.185-.085-.376-.13-.567-.152-.042-.022-.08-.05-.128-.066l-3.333-.93c-.188-.05-.376-.017-.53.073-.183.062-.34.195-.415.388L6.11 6.2c-.136.35.038.747.39.885.35.136.747-.04.884-.39l1.06-2.726 1.518.42c-.037.06-.077.117-.107.18L7.91 8.79c-.03.06-.044.124-.064.188L5.48 12.943l-3.957 1.324c-.448.335-.543.966-.212 1.414.334.45.967.545 1.414.214l4.05-1.395c.124-.09.214-.21.282-.336.05-.054.11-.097.148-.164l1.41-2.364 2.503 2.133-2.678 3.017c-.37.416-.333 1.057.085 1.425.417.37 1.056.332 1.427-.086l3.342-3.765c.104-.115.166-.25.208-.39.025-.075.025-.154.03-.233 0-.04.016-.076.013-.113-.01-.276-.12-.544-.347-.735l-2.303-1.965c.166-.158.307-.346.41-.567l1.49-3.23.48 1.272c.02.113.057.224.137.317.072.086.164.143.262.183.01.005.022.006.034.01.062.02.125.042.19.045.077.007.155-.003.234-.025h.003c.02-.006.042-.002.063-.01.11-.043.196-.114.27-.197l2.717-2.307c.29-.243.167-.673-.076-.962z"/><circle cx="13.671" cy="1.905" r="1.905"/></g></svg>